<svg width="270" height="252" viewBox="0 0 270 252" fill="none" xmlns="http://www.w3.org/2000/svg">
<g clip-path="url(#clip0)">
<path d="M78.8452 79.3073H84.7569H155.703H161.615V50.6562V25.1885H162.013H167.982V12.4547H72.4783V25.1885H78.4473H78.8452V50.6562V79.3073ZM148.881 25.1885H150.075H155.248V50.6562H149.792H148.881V25.1885ZM136.147 25.1885H138.137H142.514V50.6562H137.965H136.147V25.1885ZM123.414 25.1885H126.199H129.78V50.6562H126.142H123.414V25.1885ZM110.68 25.1885H114.261H117.047V50.6562H114.318H110.68V25.1885ZM97.9459 25.1885H102.323H104.313V50.6562H102.495H97.9459V25.1885ZM85.2121 25.1885H90.3852H91.579V50.6562H90.6685H85.2121V25.1885Z" fill="#132A3A"/>
<path d="M91.5788 117.509H148.881H149.413H155.248V85.6742H85.2119V117.509H91.0472H91.5788Z" fill="#132A3A"/>
<path d="M148.881 136.609V123.876H91.5789V136.609H97.9458H142.514H148.881Z" fill="#132A3A"/>
<path d="M136.147 200.279V142.976H104.313V200.279H136.147ZM113.863 171.627H126.597V177.994H113.863V171.627ZM113.863 184.361H126.597V190.728H113.863V184.361Z" fill="#132A3A"/>
<path d="M62.9278 200.279H97.9458V142.976H62.9278C57.6624 142.976 53.3774 147.261 53.3774 152.527V190.728C53.3774 195.994 57.6624 200.279 62.9278 200.279ZM75.6616 158.894C82.0476 158.894 87.2685 163.58 88.2013 169.701C88.3286 170.322 88.3954 170.965 88.3954 171.627C88.3954 172.29 88.3286 172.933 88.2013 173.553C87.2685 179.675 82.0476 184.361 75.6616 184.361C68.6166 184.361 62.9278 178.672 62.9278 171.627C62.9278 164.582 68.6166 158.894 75.6616 158.894Z" fill="#132A3A"/>
<path d="M215.734 190.728V133.426C215.734 127.346 213.33 121.666 208.969 117.429C204.607 113.198 198.877 110.983 192.781 111.145C180.658 111.511 171.165 121.297 171.165 133.426V136.609C171.165 140.121 168.31 142.976 164.798 142.976H142.514V200.279H206.183C211.449 200.279 215.734 195.994 215.734 190.728ZM196.633 181.178H155.248V162.077H196.633V181.178ZM193.449 139.793C189.948 139.793 187.083 136.928 187.083 133.426C187.083 129.924 189.948 127.059 193.449 127.059C196.951 127.059 199.816 129.924 199.816 133.426C199.816 136.928 196.951 139.793 193.449 139.793Z" fill="#132A3A"/>
<path d="M8.48884 237.092C11.1044 237.092 13.307 238.194 14.6561 240.506L11.3522 242.076C10.6364 241.47 10.0582 240.919 8.54391 240.919C6.89196 240.919 5.21247 242.186 5.21247 244.526C5.21247 246.839 6.89196 248.05 8.54391 248.05C10.0582 248.05 10.6364 247.555 11.3522 246.949L14.7112 248.518C13.307 250.831 11.1595 251.877 8.48884 251.877C5.29507 251.877 1 249.592 1 244.526C1 239.543 5.29507 237.092 8.48884 237.092ZM21.2915 232.192V251.657H16.9413V232.192H21.2915ZM28.4499 232.192V235.853H24.0998V232.192H28.4499ZM28.4499 237.34V251.657H24.0998V237.34H28.4499ZM38.3066 237.092C40.9221 237.092 43.1247 238.194 44.4738 240.506L41.1699 242.076C40.4541 241.47 39.8759 240.919 38.3616 240.919C36.7097 240.919 35.0302 242.186 35.0302 244.526C35.0302 246.839 36.7097 248.05 38.3616 248.05C39.8759 248.05 40.4541 247.555 41.1699 246.949L44.5289 248.518C43.1247 250.831 40.9772 251.877 38.3066 251.877C35.1128 251.877 30.8177 249.592 30.8177 244.526C30.8177 239.543 35.1128 237.092 38.3066 237.092ZM56.6707 251.657L52.0177 246.096L51.1092 247.059V251.657H46.759V246.453V232.192H51.1092V241.745L55.1565 237.34H60.3601L54.6884 243.315L61.6266 251.657H56.6707ZM70.6848 237.092C73.9336 237.092 78.4765 239.543 77.5679 246.013H67.5736C68.0692 247.5 69.3632 248.271 71.0978 248.271C72.8599 248.271 73.4105 247.885 74.4017 247.472L76.797 249.785C75.5305 251.024 73.8235 251.932 70.9326 251.932C67.3809 251.932 63.1409 249.482 63.1409 244.554C63.1409 239.543 67.436 237.092 70.6848 237.092ZM70.6848 240.809C69.4458 240.809 68.1793 241.525 67.6287 242.957H73.7134C73.2728 241.525 71.9238 240.809 70.6848 240.809ZM90.343 237.34H94.6931V251.657H90.343V250.225C90.1503 250.721 88.8562 251.932 86.6536 251.932C83.3773 251.932 79.6053 249.592 79.6053 244.471C79.6053 239.543 83.3773 237.092 86.6536 237.092C88.8562 237.092 90.1503 238.359 90.343 238.662V237.34ZM87.2869 248.105C89.0765 248.105 90.5357 246.866 90.5357 244.471C90.5357 242.158 89.0765 240.919 87.2869 240.919C85.4147 240.919 83.8178 242.186 83.8178 244.471C83.8178 246.839 85.4147 248.105 87.2869 248.105ZM106.284 237.12C108.955 237.12 111.681 238.91 111.681 243.452V251.657H107.331V243.755C107.331 241.58 106.587 240.892 105.211 240.892C103.256 240.892 102.127 242.792 101.852 243.618V251.657H97.5015V237.34H101.852V239.818C102.127 239.13 103.586 237.12 106.284 237.12ZM124.621 232.192H128.971V239.185V251.657H124.621V250.225C124.428 250.721 123.134 251.932 120.932 251.932C117.655 251.932 113.883 249.592 113.883 244.471C113.883 239.543 117.655 237.092 120.932 237.092C123.134 237.092 124.428 238.359 124.621 238.662V232.192ZM121.565 248.105C123.354 248.105 124.814 246.866 124.814 244.471C124.814 242.158 123.354 240.919 121.565 240.919C119.693 240.919 118.096 242.186 118.096 244.471C118.096 246.839 119.693 248.105 121.565 248.105ZM138.883 237.092C142.132 237.092 146.427 239.543 146.427 244.554C146.427 249.592 142.132 251.932 138.883 251.932C135.634 251.932 131.339 249.592 131.339 244.554C131.339 239.543 135.634 237.092 138.883 237.092ZM138.883 240.919C137.231 240.919 135.551 242.186 135.551 244.554C135.551 246.839 137.231 248.105 138.883 248.105C140.535 248.105 142.242 246.839 142.242 244.554C142.242 242.186 140.535 240.919 138.883 240.919ZM165.837 237.12C168.508 237.12 171.234 238.91 171.234 243.452V251.657H166.883V243.755C166.883 241.58 166.14 240.892 164.763 240.892C162.809 240.892 161.68 242.792 161.404 243.618V251.657H157.054V232.192H161.404V239.818C161.68 239.13 163.139 237.12 165.837 237.12ZM178.227 232.192V235.853H173.877V232.192H178.227ZM178.227 237.34V251.657H173.877V237.34H178.227ZM187.836 241.856C187.45 240.864 186.872 240.534 186.239 240.534C185.661 240.534 185.082 240.864 185.082 241.415C185.082 241.938 185.413 242.241 186.046 242.461L187.863 243.095C189.901 243.838 191.966 244.581 191.966 247.445C191.966 250.336 189.075 251.988 186.101 251.988C183.43 251.988 180.925 250.418 180.319 247.913L183.733 246.839C184.091 247.637 184.724 248.546 186.101 248.546C187.037 248.546 187.643 247.94 187.643 247.39C187.643 247.114 187.423 246.756 186.734 246.481L185.055 245.875C182.191 244.829 180.842 243.37 180.842 241.332C180.842 238.662 183.32 237.092 186.046 237.092C188.827 237.092 190.671 238.607 191.497 240.892L187.836 241.856ZM201.161 248.023C201.932 248.023 202.483 247.913 203.089 247.748V251.354C202.483 251.63 201.492 251.822 200.033 251.822C197.637 251.822 195.627 251.024 195.627 246.619V240.919H193.617V237.34H195.627V233.981H199.977V237.34H203.034V240.919H199.977V246.619C199.977 247.252 200.143 248.023 201.161 248.023ZM212.505 237.092C215.754 237.092 220.049 239.543 220.049 244.554C220.049 249.592 215.754 251.932 212.505 251.932C209.256 251.932 204.961 249.592 204.961 244.554C204.961 239.543 209.256 237.092 212.505 237.092ZM212.505 240.919C210.853 240.919 209.173 242.186 209.173 244.554C209.173 246.839 210.853 248.105 212.505 248.105C214.157 248.105 215.864 246.839 215.864 244.554C215.864 242.186 214.157 240.919 212.505 240.919ZM231.612 237.12C231.998 237.12 232.383 237.12 232.741 237.203V241.36C232.411 241.277 232.025 241.277 231.75 241.277C229.107 241.277 226.987 243.177 226.767 245.82V251.657H222.416V237.34H226.767V240.837C227.427 238.689 229.079 237.12 231.612 237.12ZM239.321 232.192V235.853H234.971V232.192H239.321ZM239.321 237.34V251.657H234.971V237.34H239.321ZM252.427 237.34H256.777V251.657H252.427V250.225C252.234 250.721 250.94 251.932 248.738 251.932C245.461 251.932 241.689 249.592 241.689 244.471C241.689 239.543 245.461 237.092 248.738 237.092C250.94 237.092 252.234 238.359 252.427 238.662V237.34ZM249.371 248.105C251.16 248.105 252.62 246.866 252.62 244.471C252.62 242.158 251.16 240.919 249.371 240.919C247.499 240.919 245.902 242.186 245.902 244.471C245.902 246.839 247.499 248.105 249.371 248.105ZM266.386 241.856C266 240.864 265.422 240.534 264.789 240.534C264.211 240.534 263.633 240.864 263.633 241.415C263.633 241.938 263.963 242.241 264.596 242.461L266.413 243.095C268.451 243.838 270.516 244.581 270.516 247.445C270.516 250.336 267.625 251.988 264.651 251.988C261.981 251.988 259.475 250.418 258.87 247.913L262.284 246.839C262.641 247.637 263.275 248.546 264.651 248.546C265.587 248.546 266.193 247.94 266.193 247.39C266.193 247.114 265.973 246.756 265.285 246.481L263.605 245.875C260.742 244.829 259.393 243.37 259.393 241.332C259.393 238.662 261.871 237.092 264.596 237.092C267.377 237.092 269.222 238.607 270.048 240.892L266.386 241.856Z" fill="#3A5886"/>
</g>
<defs>
<clipPath id="clip0">
<rect width="269.516" height="251.988" fill="white"/>
</clipPath>
</defs>
</svg>
